# xmcd CD Database Entry
#
# Track frame offsets:
# 183
# 11795
# 22818
# 36643
# 48580
# 61345
# 72048
# 85570
# 96235
# 108888
# 119535
# 130713
# 142585
# 156183
# 164883
# 176033
# 187310
# 205863
# 213713
# 230153
#
# Disc length: 3182 seconds
#
# Revision: 1
# Processed by: cddbd v1.4b42PL1 Copyright (c) Steve Scherf et al.
# Submitted via: tcd 2.0b
#
DISCID=240c6c14
DTITLE=모름 - 모름
DYEAR=1900
DGENRE=
TTITLE0=1번 트랙
TTITLE1=2번 트랙
TTITLE2=3번 트랙
TTITLE3=4번 트랙
TTITLE4=5번 트랙
TTITLE5=6번 트랙
TTITLE6=7번 트랙
TTITLE7=8번 트랙
TTITLE8=9번 트랙
TTITLE9=10번 트랙
TTITLE10=11번 트랙
TTITLE11=12번 트랙
TTITLE12=13번 트랙
TTITLE13=14번 트랙
TTITLE14=15번 트랙
TTITLE15=16번 트랙
TTITLE16=17번 트랙
TTITLE17=18번 트랙
TTITLE18=19번 트랙
TTITLE19=20번 트랙
EXTD=
EXTT0=
EXTT1=
EXTT2=
EXTT3=
EXTT4=
EXTT5=
EXTT6=
EXTT7=
EXTT8=
EXTT9=
EXTT10=
EXTT11=
EXTT12=
EXTT13=
EXTT14=
EXTT15=
EXTT16=
EXTT17=
EXTT18=
EXTT19=
PLAYORDER=
